<svg xmlns="http://www.w3.org/2000/svg" height="263.643" width="252.943"><path d="M46.036 135.597q0 2.81 1.46 4.66 1.45 1.84 3.68 2.93 2.23 1.09 4.9 1.55 2.66.46 5.08.46 4.56 0 8.37-.75 3.8-.75 7.05-1.97.05-.19.05-.33v-.34q0-1.22-.92-1.55-5.05 1.21-11.06 1.21-1.11 0-2.73-.1-1.63-.1-3.4-.34-1.77-.24-3.51-.61-1.75-.36-3.13-.92-1.38-.55-2.25-1.3-.87-.76-.87-1.73 0-2.37 1.21-4.48 1.21-2.11 3.17-3.9 1.97-1.79 4.41-3.27 2.45-1.48 4.97-2.64 2.52-1.17 4.82-2.02 2.31-.84 3.95-1.33-.04.92-.09 2.13-.05 1.22-.05 2.09 1.07.92 2.18.92.49-.15.82-.58.2-2.47.32-4.05.12-1.57.19-2.57.08-.99.15-1.53.07-.53.17-.92.24-.97.41-1.57l.36-1.29q0-.48-.48-.92-.49-.43-.73-.43-.72 0-1.02.24-.29.24-.38.48-.59 2.18-.9 3.4-.32 1.21-.48 1.86l-.22.85q-.05.19-.05.34l-.68-.63q-2.38.39-5.11 1.12-2.74.72-5.5 1.84-2.77 1.11-5.31 2.61-2.55 1.51-4.51 3.49-1.96 1.99-3.15 4.44t-1.19 5.45zm35.05 8.53q.04.68.33 1.51.3.82.97 1.79.83-.53 1.17-1.55 1.98 0 4.24-.75 2.25-.75 4.17-2.11 1.91-1.36 3.17-3.3 1.26-1.94 1.26-4.26 0-2.18-1.26-3.57-1.26-1.38-3.44-1.38-1.55 0-3.05 1.19-1.51 1.19-2.77 2.88-1.26 1.7-2.27 3.52-1.02 1.82-1.6 3.12-.59-1.06-.59-2.37 0-1.99.93-3.56.92-1.58 2.37-2.69 1.46-1.12 3.2-1.8 1.74-.68 3.44-.82 1.07-.1 1.07-.34 0-.29-.49-.51-.48-.22-1.11-.36-.63-.15-1.24-.22-.6-.07-.85-.07-1.84 0-3.58.7-1.75.7-3.1 1.96-1.36 1.26-2.19 2.96-.82 1.7-.82 3.63 0 1.51.53 3.25.54 1.75 1.51 3.15m3.78-1.98q.67-2.48 1.4-4.22.73-1.75 1.55-2.81.83-1.07 1.82-1.55.99-.49 2.21-.49 2.27 0 2.27 2.43 0 1.3-.94 2.52-.95 1.21-2.23 2.13-1.29.92-2.67 1.48-1.38.55-2.25.55h-.53q-.29 0-.63-.04zm13.96-10.62l.58.87 1.02-1.45q2.18 0 4.16.65 1.99.66 3.52 1.77 1.52 1.12 2.45 2.64.92 1.53.92 3.32 0 2.52-4.41 2.52-.44 0-1.17-.16-.72-.17-.72-.42 0-1.21.02-1.96t.05-1.24q.02-.48.02-.77v-.53q0-.44-.02-1-.03-.56-.05-1.04-.02-.49-.1-.8-.07-.32-.17-.32-1.64 0-2.28 1.58-.63 1.58-.63 5.16-1.4-.68-2.13-1.6-.58.88-.58 1.75 0 .97.9 2.06.89 1.09 2.2 1.86 0 .83.44 1.41t1.55.58q.92-.48 1.21-1.16 1.65 0 3.27-.49 1.63-.48 2.91-1.35 1.29-.88 2.06-2.11.78-1.24.78-2.79 0-2.18-1.17-3.95-1.16-1.77-2.93-2.98-1.77-1.21-3.88-1.87-2.1-.65-4.04-.65-.63 0-1.29.1-.65.09-1.21.36-.56.27-.92.75-.36.49-.36 1.26zm19.19 5.19q0 .58.05 1.28.05.7.05.99-1.07 1.85-1.07 3.3 0 .58.17 1.19.17.6.51 1.11.34.51.75.85.41.34.95.34 1.16 0 2.52-.27 1.35-.26 2.56-.7 1.22-.43 2.02-.97.8-.53.8-1.02 0-.82-.44-1.33-.44-.51-1.21-.51-.49 0-1.24.12t-1.5.27q-.75.15-1.43.27-.68.12-1.07.12.49-1.36.63-1.82.15-.46.2-.7l.43-.29q1.26 0 2.06-.03.8-.02 1.31-.07t.8-.1q.29-.05.54-.14.48-.34.48-1.21 0-.49-.58-.76-.58-.26-1.31-.26h-1.5q-.63-.05-1.07-.34.34-1.26.58-1.7l.24-.1q.15 0 .83-.02.68-.02 1.11-.02 2.28 0 3.2-.27.92-.27.92-.46 0-1.02-.92-1.87-.92-.84-1.98-.84-1.56 0-3.13.14-1.58.15-2.81.36-1.24.22-2.01.44-.78.22-.78.36 0 .63.73 1.22.72.58 1.69.82l-1.01 2.37q-.29.05-.56.1-.27.05-.51.15zm18.32-25.55q-.39.63-.9 2.62-.5 1.99-1.01 4.63-.51 2.64-1 5.62-.48 2.98-.87 5.58-.39 2.59-.6 4.43-.22 1.84-.22 2.28 0 1.84.17 3.39t.46 2.69q.29 1.14.68 1.8.38.65.82.65.44 0 .82-.73.39-.72.71-1.96.31-1.24.55-2.88.25-1.65.39-3.54.29-3.59.49-5.7.19-2.11.31-3.32t.22-1.72q.1-.51.14-.9.39-1.59.66-2.13.27-.53.56-.53.58 0 1.31 1.89 1.01 3.2 1.72 5.48.7 2.27 1.23 3.92l.92 2.81q.39 1.17.73 2.09.34.92.65 1.74.32.83.76 1.8 1.11 2.52 1.91 3.61.8 1.09 1.48 1.09.53 0 .92-.54.39-.53.61-1.28.21-.75.33-1.5.13-.75.17-1.19.44-4.56.78-7.59.34-3.02.58-4.94.24-1.91.39-2.91.14-.99.19-1.43.49-2.32 1.17-2.32.48 0 1.01 1.11 1.75 7.37 3.11 12.55 1.35 5.19 2.59 8.63 1.24 3.44 2.45 5.26 1.21 1.82 2.76 2.4 1.84.73 2.98 1.07 1.14.34 1.62.34.34 0 .34-.2 0-.19-.24-.43-2.18-2.91-3.51-4.88-1.34-1.96-2.16-3.32-.82-1.35-1.21-2.27-.39-.92-.68-1.8-1.7-5.23-2.98-9.81-1.29-4.58-2.23-8.07-.95-3.49-1.53-5.72-.58-2.23-.77-2.81-.68-1.94-1.41-2.74-.73-.8-1.26-.8-2.08 0-3.34 7.8-.49 4.85-.9 7.81-.41 2.95-.73 4.58-.31 1.62-.53 2.18-.22.55-.31.55-.25 0-.49-.82t-.78-2.37q-1.11-3.54-2.2-6.89-1.09-3.34-2.08-6.03-1-2.69-1.8-4.44-.8-1.74-1.33-2.13-.63-.77-1.31-.77-.73 0-1.31 1.01zm37.52 13.33q0 1.36.97 2.62-.05.15-.05.34v.29q0 1.11.92 1.84 1.07 0 1.41-1.06.82.19 1.35.24.54.05 1.07.05 1.16 0 2.69-.56t2.86-1.5q1.33-.95 2.25-2.18.92-1.24.92-2.55 0-2.33-2.47-2.62-1.26-1.55-3.63-1.55-1.31 0-2.79.54-1.48.53-2.69 1.43-1.21.89-2.01 2.1-.8 1.22-.8 2.57m4.12 7.22q0 .39-.1 1.77-.1 1.39-.24 3.23-.15 1.84-.24 3.9-.1 2.06-.1 3.76.1.67.68.92.58.24 1.21.24.68 0 .99-.22.32-.22.32-.94 0-1.51-.07-3.59-.08-2.09-.15-4.02-.07-1.94-.17-3.35-.1-1.4-.15-1.5-.77-.78-1.74-.78-.1.2-.15.34-.04.15-.09.24m.68-5.67q2.52-3.83 6.39-4.8.29 0 .68.22.39.22.39.75-.87 2.09-2.64 3.01-1.77.92-3.66.92h-.58q-.29 0-.58-.1m-2.48-1.64q.2-2.48 3.11-3.49.14 0 .14.04l-3.25 3.45zm22.35 11.34q-.49-.83-1.02-1.7t-.99-1.6q-.46-.73-.8-1.21t-.49-.63q-1.35 0-2.47.68 0 1.02.44 2.08.43 1.07 1.02 2.01.58.95 1.13 1.63.56.68.85.97-.82.53-1.77 1.67-.94 1.14-1.79 2.33-.85 1.18-1.41 2.15-.55.97-.55 1.17 0 1.3 1.94 1.3l5.38-6.44q1.6 1.6 2.54 2.45.95.84 1.43 1.26.48.41.65.48.17.07.27.07.68 0 1.26-.48.58-.49.58-1.46 0-.67-.38-1.33-.39-.65-1.22-.65-.14 0-.26.02-.12.03-.27.07l-2.37-2.61q1.64-2.23 3.39-3.3 1.74-1.07 3-1.6.29-.63.29-1.36 0-.67-.38-1.04-.39-.36-.97-.36-1.12 0-2.14.65-1.01.66-1.89 1.55-.87.9-1.62 1.82-.75.92-1.38 1.41z" fill="#ff8c00" xmlns:name="main_text"/><g data-name="Слой 2" xmlns:name="outlineContainer_mainfill" fill="#FF8C00"><g data-name="Layer 1" fill="#ff8c00"><path d="M192.952 203.422c-.18 0-.34-.3-.28-.38s.38 0 .42.24c1.26-1.2 2.52-2.44 3.72-3.7a.78.78 0 0 0-.4.12c0-.38.26-.48.3-.78h.74a99 99 0 0 0 18.8-28.64c-.32.12-.68-.2-1.02-.46a1.02 1.02 0 0 1 1.2 0 96.88 96.88 0 0 0 7.7-38.98c-.28 0-.2-.5 0-.52v-2.54a4.14 4.14 0 0 1 0-1.2v-.72a.94.94 0 0 1-.2-1.04c-.84-.4-2-.62-.96-1.74a2.98 2.98 0 0 0 1.06 1.4c0-.86-.12-1.7-.2-2.58a98.3 98.3 0 0 0-5.36-23.44l-.4-.32.2-.24a97.56 97.56 0 0 0-8-16.58h-.42c-1.14 0 .26-.1.4 0-1.32-2.18-2.72-4.3-4.18-6.36v-.1c-1-1.4-2-2.76-3.1-4a1.16 1.16 0 0 1-.68.12c-.34-.3-.28-.66 0-1.04a98 98 0 0 0-8.6-9.16 9 9 0 0 0-1.9 1.58c-.32 0-.62.2-.94.12a95.22 95.22 0 0 1 12.44 14v-.36c0-.02.22.52 0 .52a83.78 83.78 0 0 1 3.8 5.62.22.22 0 0 1 .26 0 1.76 1.76 0 0 1 0 .32c.6.94 1.14 2 1.7 2.9a1.38 1.38 0 0 1 .22-.26c0 .5.48.96.48 1.48.68 1.26 1.34 2.52 2 3.8a.24.24 0 0 1 .12.24l.42.94a2.98 2.98 0 0 1 .26-.5c.24.22 0 .48-.16.74a94.46 94.46 0 0 1-112 130.6c-.36.56.16 1.84-1.28 1.54a12 12 0 0 1 .34-1.8 95.06 95.06 0 0 1-22.42-10.18 3.66 3.66 0 0 1 .16.5c-.36 0-.34-.4-.44-.68q-4-2.54-7.84-5.5a1.38 1.38 0 0 0 0 .34c-.52 0-.26-.28-.18-.54l-.44-.36c-.58.54-.86 0-1.36-.38-1.04 0 .68 2.36-.92 2a3.2 3.2 0 0 0-.58-2.18c-.64.76-.92.14-1.84.2s.5.94.84 1.02a.52.52 0 0 1 0 .36c1.48 1.22 2.98 2.44 4.52 3.58.12-.44.66.28.68-.38.4 0 .32.7.82.66 0 .26-.26.34-.54.38.82.6 1.66 1.12 2.5 1.7a1.1 1.1 0 0 1-.36-.76c.44-.54 1.32-.64 1.52.2.72-.26.6-1.18 1.42-.5a2 2 0 0 1 .52 1.42c-.18 1.2-.54-.6-.48-1.06h-.74c-.44.12-.36 1.14.12 1.1-.1.26-.84.18-1.46-.12l1.7 1.16c0-.16 0-.28.2-.34a.38.38 0 0 1 .26.62l1.22.78a1.12 1.12 0 0 1 .92.2.34.34 0 0 1-.14.26c2.88 1.72 5.88 3.28 8.94 4.72a1.48 1.48 0 0 1 .44-1.46c.92 0 .88 1.1.94 2a97.42 97.42 0 0 0 106-17.74zm-132.98-4.3a2.82 2.82 0 0 1-2.84-2.32c.78 0 .84.92 1.26 1.36a5.66 5.66 0 0 1 1.06.14 94.46 94.46 0 0 1-14.5-18.92 1.54 1.54 0 0 1 .12.86c-1.06 0-.72-1.88-2.36-1.26a1.3 1.3 0 0 1 2.12.2 94.4 94.4 0 0 1 50.78-136.56c-.48-.16-.5-1.14-.44-1.66.88-.56.78 1.02 1.18 1.4a96.8 96.8 0 0 1 20.6-4.36 94.1 94.1 0 0 1 70.66 22 5.48 5.48 0 0 1 1.54-2.28 1.18 1.18 0 0 1 .64 0 97.36 97.36 0 0 0-73.18-23.04 101.2 101.2 0 0 0-15.3 2.8.72.72 0 0 1-.16.24v-.18a98 98 0 0 0-67.44 63.86.28.28 0 0 1 .24 0c.3.44-.18.26-.44.54a97.42 97.42 0 0 0 6 74.12 1.02 1.02 0 0 1 1.54.82c-.3 0-.4-.34-.78-.3l-.36.26a101.64 101.64 0 0 0 5.82 9.78v-.22h1.1l.1 1.1a.8.8 0 0 1-.74-.16 99.3 99.3 0 0 0 9.9 12 2.24 2.24 0 0 1-.22-.62c.36 0 .34.42.44.7a.16.16 0 0 1-.18 0c1.4 1.48 2.84 2.9 4.36 4.28a4.24 4.24 0 0 0-.14-.92c.44.72 2 .12 2 1.28a13.68 13.68 0 0 1 3.5 0c-2-1.7-4-3.46-5.88-5.34a.82.82 0 0 1 0 .4z"/><path d="M205.972 29.862c.12-.88 0-1.46-.78-1.56-.68.58-.52 1.7.78 1.56zm-15.64-8.82h-.54a.26.26 0 0 1-.18.2c.04.52.48.18.64-.2zm-118.36 8.96h-.8a1.42 1.42 0 0 0 0 .4zm3.18-1.64c-.86-1.22-1.02.12-1.6.44-1.2-.58.12-1.18.58-1.78-.48-.74-.98-.56-1.48-.88-.28.3.14.6.3.88-.4.58-.8.24-1.18.6-.62 1.12 1.12.78 1.48 1.48a.9.9 0 0 0-.34.42zm.76-3.7c-.34.7-2 .36-1.48 1.48.58-.7 1.18.92 1.78 1.18.26-.84 1.88-.1 1.18-1.18a2.98 2.98 0 0 1-1.48.3c.84-.78.1-1.1 1.18-1.2-1.26-.58-.92-.64-1.18-1.76-.6.28-1.18.3-1.78.58.54 1.3 1.12-.74 1.72.58zm-6.26 6.64l1-.58c-.7-.64-1.44-2.26-2.14-1.02 1.12.54.9.62 1.08 1.58zm-2.3 1.32l.8-.46a1.22 1.22 0 0 1-.24-.1 7.4 7.4 0 0 1-.62.54zm134 205.6a5.24 5.24 0 0 0-.68 2.38 10.72 10.72 0 0 0 1.06-.56 2.42 2.42 0 0 0-.46-1.84zM68.732 27.002c0-.16-.58-.3-.58 0s.58.32.58 0zm.6 1.2c-.88 1.3-1.78-.76-2.66-.3 1.48.62.82 2.72 1.78 2.36a1.18 1.18 0 0 1 0-1.18c.38-.3 1.18-.14.88-.88zm1.48-.9l-.6-.58c-.38.36-.78 0-1.18.58l.9.9zm126.26 204.1c0 .22.32.44.4 0s-.32-.44-.4 0zm27.14-33.3h.5l.26-.32c-.32 0-.76-.06-.76.32zm-.42-2.5a1.88 1.88 0 0 1-.42 1.24c.86-.24 2.9.68 2.5-.82-1.3.46-1.1.18-2.08-.42zm-171.66-142.5c0 .16.6.3.6 0s-.58-.32-.6 0zm172.5 139.82l-.92 1.42a2.76 2.76 0 0 1 .92-.42zm.84 2.68a1.08 1.08 0 0 1 .76.7l.48-.5c-.58-.34-1.02-.72-1.24-.2zm-39.06-162.62c.12-.12-.18-.6-.38-.4s0 .2 0 .32l.18.1.2-.02zm-3.5-10.14a1.48 1.48 0 0 0-1.02-.56c0 .2 0 .42-.14.62a4 4 0 0 1 .38.72c.42-.1.26-.78.78-.78zm-111.2 4.16c0-.16-.6-.3-.6 0s.6.32.6 0zm110.8-5s0-.28-.16-.38h-.22c-.06.22.2.64.38.38zm55.46 154c.7 0 2.42.88 3.12.38-1.42-.2-1.8-1.76-3.12-.38zm-15.84 20.7c-.54.78-1.1 1.54-1.64 2.3.2.44.56.72.36 1.54a1 1 0 0 0-.38-.26c0 .18-.32.34-.42.26a.18.18 0 0 1 0-.24l-.68.24-.62.84c.32 1.2-.6 1.08-.44 2a1.42 1.42 0 0 1-.54-.86c-1.4 1.8-2.86 3.56-4.36 5.26l.72.2c0 .54-.62.52-1.26.46a120 120 0 0 1-9.16 9.16.54.54 0 0 0 .36.36 7.46 7.46 0 0 0-2.74 3.52.88.88 0 0 1-.74-1.18l-2.14 1.78s.12 0 .16.16c.12 1-.84.94-1.64 1.02-1.68 1.28-3.38 2.52-5.12 3.72a.3.3 0 0 1-.26.2 115.4 115.4 0 0 1-22.56 12 12 12 0 0 1 .24 1.52 2 2 0 0 1-1.06-1.2 115.14 115.14 0 0 1-93.18-4.28 2.7 2.7 0 0 0-1.26 2.78c-1.44 0-2-.8-2.64-1.5.18-1.16.98-1.72 1.56-2.48q-2.14-1.14-4.2-2.34a2.56 2.56 0 0 1-.58.46c-.46.94 0 2.8-1.52 2.66-.5-.98.68-1.32.38-2.66 0-.54.46-.68.66-1.06q-1.78-1.08-3.54-2.22a1.66 1.66 0 0 1-.52 1.02c0 .8.74.9.76 1.7s-.56 1.34-.76 2c.46.8 1.14-.46 1.9.18.14.96-.58 1.06-.38 2s.86.52.94 1.14.76.64.94 1.14c-.16 2.34-1.02 4-4 3.58-.3-.52-.28-1.36-.56-1.88s-1.12-.66-1.52-1.14c-.22-1.18-.9-1.88-.76-3.4 0-.78-1.1-.52-.76-1.7-.54-.78-1.58-1.08-1.88-2-1.28-.36-2.72-1.36-4.36-.76-.76-.18-1.16-.74-1.7-1.12s-1.36-.42-1.12-1.52c1.26-.18 1.82-1.06 3.2-1.14.84-.3.96-1.32 1.7-1.7a5.64 5.64 0 0 0 2.46-.38 10.92 10.92 0 0 1 1.9 1.52.76.76 0 0 0 .56-.28 116.32 116.32 0 0 1-15.02-12.64 3.32 3.32 0 0 1-1.24.64c-.42-.32-.6-.92-.94-1.34s-.54-.82-.56-1.5a2 2 0 0 1 .42-.2 115.7 115.7 0 0 1-26.96-46.56c-.36.2-1.18.24-1.18-.26s.5-.68.92-.64a113.32 113.32 0 0 1-2.86-12.5h-.38c-1.14-.18 0-.26.36-.18a115.38 115.38 0 0 1 35.64-104v-.76c.42-.16.58 0 .66.1l1.12-.96c-.18-.1 0-.32.16-.3a.16.16 0 0 1 .14 0 116 116 0 0 1 16.1-12 2.16 2.16 0 0 1 .66-1.42 4.12 4.12 0 0 0-2.68-.9c0-1.12.32-.78-.88-1.48.82-.6.1-1.18 1.18-1.78.56.4.22.8.6 1.18.76-.48.14-.98-.3-1.48a3.08 3.08 0 0 1 1.48.3c0-1.26.5-1.72 1.78-1.18-.9-1.08 1.26-1.38 1.78-2.96-.56-.62 0-1.22 0-1.84l-2.32-.18a5.26 5.26 0 0 0 .78.54l-1.2 1.18c-.56-.5-.26-1-.88-1.48-.3-.28-.6.12-.9.3a.54.54 0 0 1-.28-.74l-1.8-.14c0 .28-.58.14-.58 0a20.96 20.96 0 0 0-12.78 3.56c0 .1.14.24 0 .3s-.24 0-.32-.12c-.46.3-.9.6-1.34.94.46 0 1.14 0 .18.2h-.34a20.82 20.82 0 0 0-7.5 11.38l-2.28 10.04a50 50 0 0 1-19.58 26.96l-8.82 5.4a21.74 21.74 0 0 0-8.46 26l4 9.56a49.62 49.62 0 0 1 0 33.32l-4 9.58a20.78 20.78 0 0 0-.78 13.08c.14-.7.88-.82 1.12-1.42 1.1.58 1.26 2.12 1.32 3.78-.4.36-1.24.14-1.7 0a21.32 21.32 0 0 0 1.7 3.54 10.48 10.48 0 0 1-.38-2.22c.52-.3 1.44-.18 2-.38a19.5 19.5 0 0 1 .56-3.22c0-.64-.56-.7-.94-.94a10.34 10.34 0 0 1-.76-2.66 3.28 3.28 0 0 0 1.32-2.82 1.2 1.2 0 0 0 .94-.2c0-1.12-1.62-.62-2.26-1.12 0-.9.82-1.08 1.14-1.7.58 0 .5.5.94.56.9-.42.28-1.06.18-2 .58-.9 1.68-2.9 2.84-1.5-.1 2-.7 3.58-.94 5.48a10.58 10.58 0 0 1 .16 5.68 11.06 11.06 0 0 1 .38 3.78c-.38.62-1.12.88-1.5 1.5-.96.2-.96-.54-1.52-.74-.44.44 0 1.8-.56 2a4 4 0 0 1 0 3.06 19.84 19.84 0 0 0 5.2 4.54l8.88 5.4a49.86 49.86 0 0 1 19.58 26.94l1.32 5.62c.12.16.22.34.46.38.92-1.48.82-4 2.84-4.34a17.04 17.04 0 0 1 1.5 3.58 2.3 2.3 0 0 0 .76 3.02c.84.14.78-.6 1.32-.74s1.14-.26 1.9-.2a4.28 4.28 0 0 1 1.88.94c.9 0 1.04-.9 1.88-.38s-.2 1.46-.36 2c-1.88-.34-2.14.9-3.78.76-.56.22-.34 1.18-.96 1.34.2.98 1.24 1.3 2.28.94a3.14 3.14 0 0 1-.38 2.82c-1.06.52-2.4.76-2.46 2.28-.36.28-.68.58-1.02.86a17.04 17.04 0 0 0 1.7 1.7 1.26 1.26 0 0 1 .26-.48c.58-.2.34.42.38.76a2.68 2.68 0 0 1 .24.48 23.16 23.16 0 0 0 4.6 2.84c.76-.56 2-.7 2-2a1.52 1.52 0 0 1 1.14.18 3.24 3.24 0 0 1-.18 1.32 3 3 0 0 1 1.88 1.7 1.5 1.5 0 0 1-.28.34 19.22 19.22 0 0 0 5.66.4l10.36-.84a49.82 49.82 0 0 1 31.66 10.28l7.88 6.78.38.28a.96.96 0 0 1 1.36 1.02 21.28 21.28 0 0 0 11.18 3.52c.2-2.18.54-4.26.74-6.42a1.34 1.34 0 0 0 .76-1.14c.64-.24.72-1.04 1.52-1.14.2-.5.16-1.22.94-1.12.32.82-1.12 1.34-1.14 2.46-.38.16-.74.38-1.12.56a5.88 5.88 0 0 0 .76 1.88c-.16 1.18-.3 2.36-.44 3.52.1 0 .28-.18.34-.12s-.26.48-.38.4v.74c1.66 0 .72-2.56 2.28-2.64.24.18.7.18.74.56-.14.72-.24 1.48-.38 2.2a20.4 20.4 0 0 0 10-4.52l7.86-6.78a50 50 0 0 1 22.46-9.72c0-.18.32-.34.42-.28a3.1 3.1 0 0 1 0-.6h1.18a1.46 1.46 0 0 1-.16.66c.94-.14 1.86-.24 2.76-.32a2.82 2.82 0 0 1-1.04-2.28 3.4 3.4 0 0 1 1.42 2.26 32.36 32.36 0 0 1 4.62 0l10.34.84a20 20 0 0 0 8.72-1.32 1.02 1.02 0 0 1 .66-.5c0-.84-1.14-.52-.84-1.68a2.1 2.1 0 0 1 1.54.68c0-.24.18-.38.4-.28a6.58 6.58 0 0 1 .78-5.06c1.1.86.76 1.9.24 3.02.7.12.92.72.82 1.64a1.24 1.24 0 0 0 .56 0 22.46 22.46 0 0 0 4.28-3.6 2.2 2.2 0 0 0 0-.36.66.66 0 0 1 .26.14 23.56 23.56 0 0 0 2-2.48h-2.2c-.96-.92.58-.74.38-2a1.16 1.16 0 0 1-.38-2c1.02-.12 1 .82 1.16 1.56a6 6 0 0 1 2.2.36 19.64 19.64 0 0 0 1.68-4.38l1.3-5.52c-.9-.26-1.06-1.28-1.5-2a.74.74 0 0 1 .32-.14v-1.54c.78-.14 1.22 0 1.16.76a1.08 1.08 0 0 1 .86-.2l.36-1.46v-.32c-.28.3-.72.7-.12 0l.16-.14c.12-.48.28-.96.42-1.44h-.2c-.04 0 .16-.4.32-.4s0-.38.18-.58 0 0-.1 0a.84.84 0 0 1 .2-.28c0-.3.24-.58.34-.88l-.56-.14c.3-1.2-.38-1.44-.38-2.34 1.02-.14 1.28.52 1.18 1.54h.1c.16-.4.38-.8.54-1.18h-.46c0-.28.3-.44.7-.46l.46-1.02a.2.2 0 0 1 0-.14c0-.28.18-.3.28-.24a54.58 54.58 0 0 1 3.54-5.88 3 3 0 0 0 0-1.02l.64.16c.34-.48.68-.94 1.04-1.4l.3-.4a.58.58 0 0 1-.32 0c0-.48 0-.74-.42-.84.42-.42.82-.84 1.26-1.26-.78-.4-1.5-.52-2.04-.84zm-169.72-158c-.2.2-.5-.28-.4-.4s.5.4.4.52zm.78 3.3c-.2.2-.5-.28-.4-.4s.5.22.4.4zm5.06-10.52c.2-.2.5.28.4.38s-.5-.34-.4-.44zm-.78 6.22a1.06 1.06 0 0 1-.78-1.16 1.06 1.06 0 0 1 .78 1.1zm-.78-6.62c-.74-.16-1.68-.14-1.56-1.16 1.02-.18 1.68.08 1.56 1.1zm-3.5-2.34c-.36-.4-1.44-.12-1.18-1.16.86-.12 1.26.26 1.18 1.1zm1.56 2.34a8.66 8.66 0 0 0-3.52-.38c-.12-1.44 4.1-1.26 3.52.32zm-4.28 5.46c-.88.22-.56-.76-1.18-.78.16-1.04 1.52-.08 1.18.72zm-.78-2.72c-.62-.22 0-.42.38-.4s.02.34-.38.34zm-1.56-4.68c.9-.86 2.16.12 2 1.56-.74-.74-.98 0-2 0zm0 7.4c.2 0 .44.32 0 .38zm0 7c.2 0 .44.32 0 .4zm-37.84 111.1c-.6 0-.6-.42-.58-.96h.96c.02.46.04.92-.38.96zm6.8 27.78c-.92.1-.88-.76-1.52-.96s-.66 1-1.32 1.14c-.88-.2-1.18-.96-2-1.14-.12-1 .7-1.08 1.14-1.5a4.7 4.7 0 0 0 3.22.94c.34.26 1.04.86.48 1.52zm1.7.36c.4 0 .5.14.76.2-.04.54-.9.46-.76-.2zm31.56 49.34c1.12.24-.68.88 0 0zm6.8 5.86c.34 0 .44.32.38.76a.46.46 0 0 1-.38-.74zm26.66 3.4a2.52 2.52 0 0 1-2 0c.18-.82.92-1.08 1.88-1.14-.08.44.28.56.12 1.14zm28 16c-.72.16-.66-.84-.38-1.12h.54c.26.3.32 1.18-.2 1.18zm3.78-2.46c-.2-1.2 2-1.32 1.7 0-.48.2-1.32.44-1.74.06zm1.7 5.48c-.76.12-.64-.8-.18-.94s.4.76.14 1zm3.22-1.5c-1.12 0-1.82-.46-1.7-1.7.78.14.96-.3 1.7-.2 0 .18.16.34.38.38a3.04 3.04 0 0 1-.42 1.58zm.64.1c0-.38.48-.3.78-.4.04.44-.52.36-.82.46zm5.06-2c0-.44.4-.22.4 0s-.44.32-.44.1zm-.6-2.3c-.62-.82.32-2.32 1.14-1.7a1.48 1.48 0 0 1-1.18 1.8zm4 4.92c.14-.36.2 0 .18.36s-.26.02-.24-.26zm1.3 3.24c0-.38.48-.32.78-.4-.08.48-.54.4-.84.5zm.4-.8c-.2-.2.28-.48.38-.38s-.34.6-.44.48zm2-.38c-.16-.94.72-.84.38-2 1.08-.42.44 2.32-.5 2.1zm2.34-3.9c.2-.6.4 0 .38.4s-.52.12-.5-.3zm1.56 2.72c-.22-.2.26-.48.38-.38s-.4.6-.5.48zm22.98-16.74c-.2-.2.28-.5.38-.38s-.4.62-.5.48zm38.94-17.54c.4 1.18-.86.7-1.54.8-.04-.6.54-.8 1.42-.7zm-1.54-2.72c.2.2-.28.5-.4.4s.16-.4.28-.3zm-3.12 5.46c-.2-.2.28-.5.38-.38s-.38.58-.5.48zm5.84 5.06c-.82-.54.3-2-.4-2.34 1.3-.78.82 1.44.28 2.44zm-2-1.56c-1.06-.16-.36 1.46-1.16 1.56-1.48.7.4-2.66-1.16-1.16-.58-.74.84-2.78 1.16-4 .54.12.32.98.4 1.56.68 0 .88-.68.76-1.56 1.16.28 1.7 1.16 3.52.78-1.86.54-1.86 2.48-3.6 2.92zm4.7-13.24c1.38-.38.68 1.68.38 2-.92.12-.26-1.34-.46-1.9zm1.16 10.14c0 .44-.72.32-1.16.38-.04-.36.62-.24 1.08-.28zm-1.16 4.28c-.22-.2.26-.5.38-.4s-.36.6-.46.5zm.38 4.28c-.98-.72.64 0 1.16 0-.36.8-.78.08-1.24.08zm3.5-11.7c-.74.78-.36 1.68-.78 2-.14 1.26-1.22-2.22.7-1.9zm2 7.02c.22.2-.28.5-.38.4s.14-.4.24-.3zm-1.54 1.56c0-.38.46-.3.78-.38-.16.46-.64.4-.92.48zm.38-1.16c0 .38-.48.3-.78.38-.12-.28.34-.2.64-.28zm3.12-17.14c0 .36-.48.3-.78.38-.1-.28.34-.2.64-.28zm-2.72 12c.16-.76.14-1.7 1.16-1.56.56.84-.26 1.7-1.32 1.74zm1.56.78a.38.38 0 0 1 .76 0c-.48.4-.82.72-.9.18zm2-1.58c-.34 0-.36.16-.4.4h-.78v-.78c.34 0 .38-.16.4-.38h.78zm0-9.74c0-.44.38-.2.38 0s-.58.4-.58.18zm1.16-4.28c.18-.34.34-.7.78-.78 0-.76-1.06-.5-.78-1.56a2 2 0 0 1 2 2 2.52 2.52 0 0 1-2.2.52zm0-4.28c.9.54 2.44.42 2.34 2-1.22-.26-2.42-.52-2.54-1.82zm4.68-1.16c-.2-.2.28-.5.4-.4s-.5.68-.6.58zm4.28-10.14c-.2-.2.3-.5.4-.38s-.48.68-.6.56zm-32.68-176.1c-.22-.14-.2-.48-.12-.92h-.62c-.06.92.42 1.8.74.92zm-118 7.32c-.3-.16-.6-.58-.9-.3.28.22.58.64.88.36zm45.62-18.32c-.16.3 0 .6.3.9.16-.3.1-.6-.3-.9zm119.28 160a1.72 1.72 0 0 1-.4 1.16c.8-.24 2.72.64 2.34-.78-1.22.46-1.02.2-2-.36zm1.16 2c-.3 0-.76 0-.78.4.32-.14.78-.06.78-.44zM74.372 23.162c-.16-.2-.32-.4 0-.6.16.18.58.1.3-.3-.48.36-.98 0-1.48.3.4.3.78.9 1.18.6zm160.88 154c-.12-.1-.58.2-.4.4s.6-.12.4-.32zm4-3.88h-1.28v1.16h.78c.04-.44.5-.44.4-1.08zm-25.42 46.92l.32-1.26a2.76 2.76 0 0 0-1.32-.18c.4.16.82.72.9 1.52zM71.972 26.122c-.56-.5-1.14-2.52-2-2.66.82 1.3 0 2.78 2 2.66zm-70.58 147.34a7.12 7.12 0 0 0-.62-2c.18.72.38 1.36.62 2zm135.52-170.76c-.3-.16-.6-.58-.88-.3.28.18.58.58.88.3zm72.1 31.06c0 .1.18.58.4.38s-.2-.6-.4-.38zm28.96 141.16c0-.12-.58.18-.38.38s.58-.18.38-.38zm1.56-1.56c.12 0 .6-.2.4-.4s-.6.2-.4.4zm12.86-12.48a1.86 1.86 0 0 1-.8-2.66v-.12l-.16-.36h-.16a.78.78 0 0 1 0-.38l-3.7-8.86a46 46 0 0 1-2.84-18c-.12.12-.32.22-.38.14s.24-.48.38-.42a43.62 43.62 0 0 1 2.84-15l4-9.56v-.12c0-.12-.6.42-.52.68-1.28-.36.44-.76.4-1.16h.26a21.74 21.74 0 0 0-8.64-25.52l-6.64-4a22.94 22.94 0 0 1-3.3-1.28c0-.26.32-.34.62-.36a50.54 50.54 0 0 1-16.28-19.08c-.2 0-.38-.34-.3-.42s-.14-.34-.22-.5a19.52 19.52 0 0 0-.64 2c-1.18-.28-1.42.4-2.34.38-.12-1.02.54-1.28 1.56-1.16.32-1.1-.54-1.02-.38-2a6.92 6.92 0 0 1 1.22-.6c-.36-.84-.68-1.68-.98-2.5h-.64c0-.48 0-.64.4-.72-.22-.72-.44-1.44-.6-2.16l-2-8.54s-.12 0-.12-.14a.1.1 0 0 1 0-.1l-.3-1.32-.24-.82a1.36 1.36 0 0 1-.2-.68c0-.2-.14-.4-.2-.6a.46.46 0 0 0-.26-.12.24.24 0 0 1 .12-.22 17.8 17.8 0 0 0-1.14-2.42c-.66.3 1.12 1.4-.54 1.08-.3 1.2 1.08.76.78 2 .16.6 1.22.32.78 1.54-.36-.4-1.44-.1-1.16-1.16-.82 0-.12 1.7-.78 2s-.84-.46-1.56-.38c-.16-.66.3-.74.78-.78-1-2.18.72-2.86 0-5.06a3.02 3.02 0 0 0 1.5.48 3.64 3.64 0 0 0-.3-.46 6.32 6.32 0 0 1-2-.8 1.68 1.68 0 0 0 .3-1.52c-.2-.24-.4-.52-.62-.74a.66.66 0 0 1-.28.58 7.22 7.22 0 0 0-.18 1.68c-.78-1.28-.62 0-2 0-.72-.84-.46-2.66-2.34-2.34.78-.92-.16-2.72 0-4l-.34-.22a.4.4 0 0 1-.32 0s-.22-.12-.34-.2c0 .28-.56.16-.56 0s.12-.16.22-.16a20.58 20.58 0 0 0-2.42-1.14c-.14.4-.38.58-.94 0 .74 1.36-.92 1.32-.38 3.5h-1.56c0-1.1 1.32-.76.78-2.34-.48-.58-1.58-1.16-.78-2l.02-.22a19.58 19.58 0 0 0-5.5-.48c.9.68-.32 1.46 1.36 1.42-.3.32-1.76.5-2.74 1.16 0 1 .68-.54 1.58 0-1.04 1.5 0 1.54-.4 2.72 1.06-.44.98-.18 2.34 0 .7 1.06-1.72.76-.38 1.18-.38 1.52-1.54-1.9-1.56.4a2.54 2.54 0 0 0-2-.4c-.32-.78.48-1.08.38-1.56-.32-1.74-2.24-2-1.54-4a2.88 2.88 0 0 0-.72-.76h-.14v.36a.44.44 0 0 1-.68-.3l-2.22.18a1.28 1.28 0 0 1-.5.5c0 .44.38.22.38 0 .4.9 1.22 1.38 1.16 2.74-.56 0-1.74-1.6-1.54 0-.62-.18-.34-1.24-1.58-.78 0 1.02.82 1 1.58 1.16-.86 1.24-1.24.5-.4 2-.34 0-.38-.14-.4-.38-.8.1-.78 1.04-1.16 1.56a20.28 20.28 0 0 1 0-4.84 4.86 4.86 0 0 1 0-1.32h-.34a.52.52 0 0 0 .3-.28h-1.08a.84.84 0 0 1 .4.98c-.66.14-.74-.3-.78-.78a3.36 3.36 0 0 1-3.12.78 3.78 3.78 0 0 1-.2-.88 48.12 48.12 0 0 1-12.34-2.1 2.18 2.18 0 0 1-1.86 0 1.02 1.02 0 0 0 .26-.42l-1-.34a6.56 6.56 0 0 1 .34 1.16c-1.26.22-1.48-.6-1.52-1.6a42.46 42.46 0 0 1-12.28-7l-2.74-2.34a3.48 3.48 0 0 1-1.02.26 2.12 2.12 0 0 1 .14-1.04l-4.24-3.64c-.28.22-.56-.16-.84-.32a.3.3 0 0 1 .42 0 14.78 14.78 0 0 0-1.86-1.3.98.98 0 0 1-.94 1.32l1.78 1.78c0 1.42-1 .12-1.78 1.18.22.8 0 1.82-1.18 1.78-.88-.68-.16-1.38.3-2a12.18 12.18 0 0 1-2.46-4.28 2.74 2.74 0 0 0 1.76-1.16l-.94-.38c-.46.2-.94.72-1.42.36.3 2-1.64 2.96-2.96 4.14-2.12-1.44-2.66-.58-4.44-2.66 1.08-1.2 2.16-.12 3.26-.9.56.5.26 1 .9 1.5 2.32.28 0-2.9 2-2.68a8.96 8.96 0 0 1-.76-.74 22.96 22.96 0 0 0-5.08-.48 4.38 4.38 0 0 1-.96 1.52 2.98 2.98 0 0 0-1.7-1.3 21.32 21.32 0 0 0-7.34 2.38l.12.1c-.72.84-2 .76-2.38 1.78a1.2 1.2 0 0 0-.24-.22l-.74.58-7.8 6.76a50.28 50.28 0 0 1-24.32 10c-.2.14-.32 0-.36 0-1.28.14-2.54.24-3.76.28a1.72 1.72 0 0 0 0 1.5c1.08.68.34-.92 1.18-1.2 2 1.84-1.68 1.84 1.18 3.56-.98 0-.66.5-.76 1.1a116.26 116.26 0 0 1 16.42-6.14l.36-.3a.72.72 0 0 1 0 .18 116.58 116.58 0 0 1 16.82-3.44c0-.24.38-.18.52 0l2.52-.3a2 2 0 0 1 .8-1.1c-.6-1.08-1.18-.34-1.78-1.18.4-1.88 1.8-4.24 4.16-3.56a2.58 2.58 0 0 1 .28-2c.54-.98 2.54 1.54 2-.28.46-.7 1.78.9.58 1.18 2.46.96 1.48 2.3 3.26 3.26l-1.18 1.18c-.68-.48-.86-.98-.28-1.48-1.32-.12-.92-2-2.38-1.78-.32.58.5.26.9.9-1 .84-2-.14-2.98-.6-.88 1.4-1.76.78-2.66.88-.5 1.2.56 2.38 1.18 3.56a2 2 0 0 0-.88 1h1.68a2.5 2.5 0 0 1 .58-1.18 2.78 2.78 0 0 1 1.62 1c1.36 0 2.72-.1 4.1-.12l-.16-.52c.28-.26.56 0 .82.26h2.12a119.82 119.82 0 0 1 13.74.84h.2c.06 0 0 0 0-.12a.46.46 0 0 1 .48.18 114.16 114.16 0 0 1 28.6 7.4 8.5 8.5 0 0 1 .58-1.12 7.74 7.74 0 0 1 0 1.36l2.66 1.2a1.22 1.22 0 0 0 .6-.42.9.9 0 0 1 .16.76c2.44 1.1 4.82 2.3 7.18 3.54.38-.6 1.52-.44 1.42-1.52.82.84 1.12-.2 2.34 0 0 1.48.32.14 1.16.38-.34 1.06.72 3.52-.68 3.5l.56.34a.92.92 0 0 0 .52-1.1 2.5 2.5 0 0 1 1.94 2.52l3.5 2.3c-.16-.9.22-1.26 1.18-1.02-.38.32-.2 1.22-1 1.16l.52.34c.58 0 1.32.3 1.3.92a116 116 0 0 1 19.58 17.56c0-.42.38-.2.38 0s0 .22-.16.24c.38.44.74.92 1.14 1.4a1.18 1.18 0 0 1 1.22-.62 9.78 9.78 0 0 1-.58 1.4c.22.24.42.5.62.74a1.82 1.82 0 0 1 2-1.74 2.46 2.46 0 0 1 .4 2c-.36-.18-.7-.34-.78-.78-.72 0-.58.84-1.36.78q3.44 4.2 6.52 8.7a7.58 7.58 0 0 0 3.32 2.62.88.88 0 0 1-1.28.7c.34.54.64 1.08.98 1.62.18 0 .38.32.3.4a116.16 116.16 0 0 1 5.62 10.44 115.26 115.26 0 0 1 4.24 86.94 2.7 2.7 0 0 1 1.22-.68v-2a1.74 1.74 0 0 1 .78 1.56 3.8 3.8 0 0 0 2.34-.98c.74.72.3.72 1.56.38-.18.94.7.86.38 2-.62 0-.66-.38-1.16-.4-.18.84.56.74 1.16.78a2.66 2.66 0 0 1-1.16.78c.84.82.8 1.48-.4 2 1.3 0 0 1.72.78 3.1 1.12 0 .68 1.68 2 1.56-.86.82.18 1.12 0 2.34-1.5 0-.14.32-.4 1.18-1.08-.36-3.66.8-3.5-.78-.98.16 0 1.5.78 1.16a2.52 2.52 0 0 1-2.74 2 1.84 1.84 0 0 0-.38-3.12c-1.16.26.36.82 0 1.56-2.52 0 0-2.3-3.12-1.56.78-.8-.16-.78-.38-1.56a6.64 6.64 0 0 0 .38-2.74c2.44.74 1.36-.46 1.56-1.16 1.18-.4.7.86.78 1.56.82.16 1.04-.28 1.56-.4 0-.36-.48-.3-.78-.38-.12-.62.36-.68.38-1.16-.32-1.16-1.24.22-2 0 0-.46 0-.7-.4-.78.4-.4.78-.8 1.18-1.18a2.9 2.9 0 0 0-1.22-.68 115.04 115.04 0 0 1-9.74 20 2 2 0 0 1 .24.5c.44-.28.88 0 1.16.46a3.62 3.62 0 0 0 1.5-.94c.82.78.34.76 1.68.42a.76.76 0 0 0 0 .3 34.3 34.3 0 0 1 4.56-3.42l1.72-1.06c-.42-.3-1.32-.12-1.08-1.1.86-.2 1.24 0 1.22.74.12 0 .24-.12.3 0a.3.3 0 0 1 0 .18l.9-.56a.82.82 0 0 1-.5-1.06h1.56a1.34 1.34 0 0 1 0 .4h.12a.52.52 0 0 1 .26-.16l3.5-2.14c-.18-.2.3-.48.4-.38a.14.14 0 0 1 0 .12l.4-.24c.46-.28.92-.6 1.36-.92a14.68 14.68 0 0 1 .7-1.88 2.52 2.52 0 0 0 .88.24c.42-.38.78-.82 1.16-1.24a3.1 3.1 0 0 1-.64 0c0-.58 1.6-1.74 0-1.56.16-.62 1.22-.34.78-1.56-1.04-.12-1.02.82-1.18 1.56-1.22-.86-.5-1.24-2-.4 0-.32.16-.36.4-.38-.12-.8-1.04-.78-1.56-1.18a27.06 27.06 0 0 1 5.84 0 2.66 2.66 0 0 1-1.18.78c0 .42.78.26.78.78.58-.32.56-1.24.78-2 .18.34.42.36.62.24s.28-.52.42-.78a.24.24 0 0 0-.22-.26c0-.22.22-.24.48-.24a6.28 6.28 0 0 0 .36-.74.42.42 0 0 1 .14-.28c.2-.42.4-.86.56-1.3a4.14 4.14 0 0 1-1.16-.16c-1.4.28 0 3.42-2 3.1-.14-.66.32-.72.78-.76a3.52 3.52 0 0 1-.78-3.12 28.16 28.16 0 0 1 3.62-.5 21.26 21.26 0 0 0 .28-11.46 2.2 2.2 0 0 0 .14.34zm-2.86-54.68c.2-.2.48.28.38.4s-.5-.28-.38-.4zm-.78.78c.2-.2.5.28.38.4s-.5-.28-.38-.4zm-.78-7.78c-.38 0-.3-.48-.4-.78.4.02.4.48.4.78zm-.4 11.68c.2-.2.5.28.4.4s-.5-.28-.4-.4zm-33.12-60c.22-.2.5.3.4.4s-.5-.28-.4-.4zm-3.5-16.74c-.2.2-.48-.28-.38-.38s.5.24.38.38zm-132.82-11.68c-.2.2-.5-.28-.4-.4s.5.28.4.4zm36.22-6.62c.2-.22.5.28.38.38s-.48-.22-.38-.38zm10.52 0c-.46 0-.22-.4 0-.4s.22.4 0 .4zm11.68-1.56c-1.06-1.2 1.18 1.06 0 0zm1.56-5.46c-.2.2-.5-.28-.38-.4s.5.3.38.4zm.4-1.18c0-1 .66.54 1.54 0-.08.98-1.32.12-1.54 0zm2.32.78c-.36 0-.3-.46-.38-.78.38.02.3.48.38.78zm-.38 1.58c1.2.86-.44 2.5 0 0zm2 0c-.2.2-.5-.28-.38-.38s.44.26.32.38zm1.52 4.28c-.48 0-.38-.78 0-.78.22.34.44.7 0 .78zm20.66 7c-.2.2-.5-.28-.4-.38s.48.28.38.38zm2.72.4c-.2.2-.5-.28-.4-.4s.48.28.38.4zm1.16 2.32c-.22.2-.5-.3-.4-.4s.5.4.4.4zm5.06.78c-.46 0-.22-.4 0-.4s.2.42 0 .42zm.78.76c-.2.22-.52-.26-.4-.38s.5.3.4.4zm1.62-1.54c-.2.2-.5-.3-.38-.4s.38.4.38.4zm.4 3.5c-.44 0-.22-.4 0-.4s.14.42-.08.42zm1.08-3.5c.2-.2.5.28.4.38s-.5-.26-.4-.38zm.78 2.72h-.78v-.72h.78zm.78 1.56c0-.7.48-.82.4-1.56 0-.38-.48-.3-.78-.4-.22-.84.74-.54.78-1.16 1.54.68.64 1.4 1.16 3.12zm-.78-4c.68-.48 1.02-1.32 2.34-1.16.56 1.84-1.28 1.16-2.34 1.28zm5.84 2c0 .1.12.72 0 .78s-.62-.56-.38-.78 1.98-1.32.38.06zm10.92-3.1c.2-.2.5.28.38.38s-.5-.22-.38-.32zm-.4 5.06c0 .32-.14.36-.38.38h-.78v-1.16c.54.2.54.74 1.16.84zm-.78-1.56h-.78v-.68h.78zm-2.32-2.28c-.36-1.36 1.26-.66 1.54-.38-.12.52-.96.32-1.54.38zm1.16 4c.2-.2.5.28.38.38s-.48-.38-.38-.48zm-4.28.38c.2-.2.5.3.38.4s-.5-.38-.38-.5zm-2 1.56c.38 0 .3.48.4.78-.34-.1-.26-.56-.36-.88zm.4-1.16s-.14 1.1-.4.78.98-1.96.44-.88zm.38 1.56a1.08 1.08 0 0 1 1.18-.78c.22.72-.52.64-1.14.68zm1.18 2c-.58-.16 0-.34 0-.78.52.04.42.62.04.62zm1.54 2c-.86.22-.54-.74-1.16-.76-.08-.92 1.54-.24 1.26.54zm.8 0v-1.54a.82.82 0 1 1 .04 1.32zm1.56-3.5c-.22.2-.5-.28-.4-.38s.54.06.44.16zm0-1.56c1-.1 1.66.14 1.54 1.18-.7-.38-1.64-.36-1.5-1.4zm1.58 6.32h-.78v-.76h.78zm-.78-1.56c-.52 0-.14-2.16 1.18-1.54-.12.86-.78 1.1-1.18 1.62zm.78-2a1.08 1.08 0 0 1 1.18-.78 1.08 1.08 0 0 1-1.18.92zm1.56 4.28c.46 0 .34.72.4 1.18-.46.1-.34-.58-.4-1.04zm0-3.88c.38 0 .3.46.4.78-.38.12-.32-.34-.4-.64zm-.38-2c.52-1.32.46-3.84.78-4.28-.26-.4-.9-.4-.78-1.18 1.22.34 1.6 1.52 2 2.74-1.92-.6.06 3-2 2.9zm2.34-1.16c-.96-1.32 1.3.94 0 0zm6.22 5.06v1.56a.84.84 0 1 1 0-1.38zm-2.72-5.46c-.2.2-.5-.28-.38-.38s.48.46.38.56zm0 1.56c-.2.2-.5-.28-.38-.38s.48.46.38.56zm-.86-6.84c-.94-1.32 1.3.94 0 0zm0 1.54c-.94-1.3 1.3.96 0 0zm-.38 7.42c.2-.2.5.28.38.38s-.42-.26-.3-.36zm-.8.78c-1.18 1.06 1.08-1.2 0 0zm1.18 3.5c-1.18-.26.38-.84 0-1.56 1.38.32.42.88 0 1.58zm.78-2.34c-.56-.18 0-.34 0-.78a.402.402 0 0 1 .08.8zm.78-8.96c-.2.2-.5-.28-.4-.4s.58.32.48.46zm.4 13.64a.4.4 0 0 1 0-.78c.64.2.04.36.04.8zm.38-7.4c.2-.22.5.28.38.38s-.4-.26-.3-.36zm.78 6.22c-1.36-.12 0-1.04-.78-1.16.96-.22 1.64-.32 2-2 .54.12.32.96.4 1.54-.7-.1-.8.38-.4.4-.02.82-1.26.34-1.14 1.24zm2-.38c-.2.2-.5-.28-.38-.4s.5.38.4.38zm0-3.12c.38 0 .3.48.4.78-.36.02-.28-.46-.38-.76zm.4-1.56c-.2.2-.5-.28-.4-.38s.52.3.42.4zm.78-1.16c.4-.34.12.76 0 .38.82 2.24-.94.42.02-.36zm1.56 3.88c-.72 0-.84-.46-1.56-.38-.12-.66 2.2-.68 1.58.32zm0 8.58c-.2.2-.52-.28-.4-.4s.54.3.42.42zm3.12-6.64c-.94-1.3 1.32.94 0 0zm1.56 16c-.2.2-.5-.28-.38-.38s.5.38.38.38zm8.18 6.64c.38 0 .3.48.4.76-.38 0-.3-.46-.4-.76zm2.74 7.78c-.38-1.4 1.66-.68 2-.4 0 .86-1.46.18-2 .4zm2 3.26c-.2-.2.28-.5.4-.38s-.22.5-.32.38zm2.58 2.58c-.2.2-.5-.28-.38-.38s.58.28.46.38zm3.12-.38c-.68 0-.88-.68-.78-1.56 1.26-.32.78.86.86 1.56zm.54 5.58c-.22-.2.28-.48.38-.38s-.2.5-.3.38zm1.02-2.86c.2-.2.5.28.38.4s-.4-.28-.3-.4zm.14 5.6c-.2-.2.28-.5.4-.4s-.2.5-.32.4zm.78-5.84c-.2-.2.28-.5.38-.4s-.2.5-.3.4zm5.06 12.46c-.2-.2.28-.5.4-.38s-.2.48-.32.38zm.4 74.4c0 .46-.72.34-1.18.38.08-.44.8-.32 1.26-.38zm-.4 4.68c-.2-.2.28-.5.4-.4s-.2.5-.32.5zm0-5.06c-.2-.2.28-.5.4-.4s-.2.5-.32.4zm-4.2 19.16c-.34.24-.7.48-.78 0s.78-.46.78 0zm-5.46 4c1.2-1.06-1.06 1.18 0 0zm-.76 2.72c.22-.34.46-.7 0-.78.28-.68.7 0 1.16 0 0 .32-.4.4-.4.78zm1.16 3.52v-1.18c1.14-.74 1.14 1.56 0 .94zm.78-3.52c-.2-.2.28-.5.38-.38s-.28.32-.38.2zm0-5.44c.16-.58.34 0 .78 0-.1.3-.78.2-.78-.18zm1.16 5.06c-.2-.2.28-.5.4-.4s-.28.32-.4.22zm2 1.16c-.3-1.2 1.34-.46.76-2 .86.18.34 2.28-.8 1.82zm1.54-3.12c0-.36.48-.3.78-.38-.04.2-.5.12-.82.2zm.4-1.56c0-.44.4-.2.38 0s-.42.04-.42-.18zm.38-1.54c0-.44.4-.22.4 0s-.44.02-.44-.18zm1.18 2.72c-.22-.86.74-.56.78-1.18.66-.28-.02 1.34-.82 1zm2-1.56c.18-.56.34 0 .78 0a.45.45 0 0 1-.88-.18zm2.34-2c0 .38-.48.3-.78.38-.08-.5.38-.42.68-.5zm-.38.78a1.06 1.06 0 0 1 .78 1.16c-.94.06-.84-.68-.88-1.28zm1.54-.4s-1.1-.12-.76-.38 1.78.82.66.26zm2.74-3.12c.26.3 1.4 2 0 .4-.1-.12-.7.12-.78 0-.34-.56.48-.74.68-.52zm2.62-17.7c.2.2-.28.5-.38.38s.28-.38.38-.38zm0 2c.2.2-.28.5-.38.4s.28-.4.38-.4zm0 7.4c.2.2-.28.5-.38.4s.28-.5.38-.4zm-.78-14c.2.2-.28.5-.38.38s.28-.5.38-.4zm-.78-1.16c-.34.24-.68.46-.76 0a.38.38 0 0 1 .76-.02zm-1.16 7.38c0 .4-.48.32-.78.4.02-.4.48-.32.78-.42zm.4 9.76v.78h-.78v-.78zm-.78-20.26c.18.2-.28.5-.4.38s.28-.5.4-.4zm-.14-42.6a1.06 1.06 0 0 1 1.16-.78c.18.8-.56.72-1.16.76zm1.16-10.14v-1.18c.7 0 .82.48 1.56.38-.1.7-.68.88-1.56.78zm.78-4.28a3.28 3.28 0 0 1-2.74 1.56 4 4 0 0 1 2.74-1.66zm-2.58 24.3c.18.2-.3.5-.4.38s.28-.52.4-.4zm-.78 38.94c.36-.4 1.42-.12 1.16-1.16 1 1.02-.2 3.16-1.56 3.12a2.6 2.6 0 0 0 .4-1.98zm1.16 12.86c0 .44-.38.22-.38 0s.38-.2.38-.02zm-3.5-8.2c-.2-.2.28-.5.38-.4s-.28.52-.38.4zm.38 3.5c0-.44.4-.2.4 0s-.4.22-.4 0zm.88-3.5c.12-.8 1.46-.36 1.56-1.16 1 0-.54.66 0 1.56-.8.04-.92-.4-1.56-.4zm1.18 1.56c-.22-.2.28-.5.38-.38s-.38.48-.48.38zm0 2.72c0-.32-.16-.36-.4-.38 0-.42.78-.26.78-.78.44 0 .22.38 0 .38 0 .46 0 .7.4.78-.1.56-1.18.14-1.18.78-.78-.24-.34-.88.3-.78zm-.4 4.68c-.2-.2.28-.5.4-.38s-.4.5-.5.38zm.4 3.5v-1.54c.7 0 .82.48 1.56.38.36 0 .3-.48.38-.78.86-.22.56.74 1.16.78-.76 1.56-1.5.7-3.2 1.16zm3.1-6.62c.22.2-.28.5-.38.4s.1-.5.28-.4zm-.28 4.92c-.46 0-.24-.38 0-.38s.26.4 0 .38zm-.26-15.44c-.32-.4.34-.7.38-.78.94-1.5-.12 1.06-.32.78zm1.16.4c.2.2-.28.5-.38.38s.34-.48.44-.38zm-.38 9.74c0-.44.38-.22.38 0s-.32.22-.32 0zm.78 4c.2.2-.28.48-.4.38s.34-.6.46-.48zm-.4.78c.5.66 1.32 1.02 1.18 2.32-1.66.46-1-1.38-1.12-2.42zm1.56-16.76c-.2-.2.28-.5.4-.38s-.22.4-.34.28zm0-4c-.2-.2.28-.48.4-.38s-.22.5-.34.38zm1.18 18.32c-.22-.2.28-.5.38-.4s-.22.6-.32.4zm0-8.58c-.22-.2.28-.5.38-.38s-.22.5-.32.38zm.38-2.72c-.2-.2.28-.5.38-.4s-.2.5-.4.4zm2 3.1c-.52 0-.3-.96-.38-1.54 1.36-.36.66 1.26.36 1.54zm-14.8 16.76c.2-.58.58-.98.78-1.56-1.26-.48-.28 1.26-1.56.78-.22-.68 1.16-1.62 0-2 0 .84-1.38.18-2 .38.38.72-1.16 1.3 0 1.56a2.84 2.84 0 0 1 .78-1.16c0 1.06.64.78 0 1.56 1.28-.38 1.1-.12 2 .44zm-122.22-177.1zm-39.42 24c0-.16-.6-.3-.6 0s.6.36.6.04zm-1.78-2.96l-1.8-1.74c-.3.4-.88.8-.58 1.18 1.32-.8.94 1.16 2.38.6zm166.54 147.1c-1.38.58-2.34-1.24-2.72-.38.44 0 .6.42.78.78s-.7.88 0 1.16c-.28-1.44 1.6-.66 1.94-1.56zm-.78 7.8c-.46 0-1.1 0-1.16.38.24 0 .46 0 .38.4-.2 0-.44.3 0 .38.1-.56.64-.66.78-1.16zm.4-2c-.32 1.4-1.36-.14-2 1.18h2.34c-.02-.38.1-1.08-.3-1.14zm-1.56 5.08s.58-.2.38-.4-.58.22-.38.44z"/><path d="M68.292 216.422a1.86 1.86 0 0 0-.3.7c.26.86 2 .3 2.44.94v1.12c0 .6 1 .24.94.94-.28 0-.48.28-.76.38s-.72-.4-1.12-.58c-.72-.16-.66.46-1.12.58h-.3c1.28.84 2.54 1.68 3.84 2.46.18-.24.38-.46.58-.7-.16-.84-.74-1.26-.74-2.26a2.26 2.26 0 0 1 1.3-.4c-1.62-1.06-3.2-2.1-4.76-3.18zm-43.56-60.66c-.5-1.02 1.2-.74 1.66-1.12a102.56 102.56 0 0 1 29-96.78 5.8 5.8 0 0 1-2.3-2 1.38 1.38 0 0 1 0-.7 106 106 0 0 0-31.44 93.56.86.86 0 0 1 .24.22h-.2a105.46 105.46 0 0 0 9.88 30.4 10 10 0 0 1-.36-2.18 2 2 0 0 1 2.46-.76.76.76 0 0 0 .24-.2 102.32 102.32 0 0 1-7.32-20.72c-.24.52-1.3.4-1.86.28zm8 19.14c0 .22-.2.12-.2 0s.2-.1.2 0zm34.14 41.84a.54.54 0 0 0-.56-.38c-.42 0 0 1-.38 1.14-.82-.16.16-.92-.38-1.32-.86 0-.78.84-1.68.74 0-1.24.66-2 .18-3.18a1.36 1.36 0 0 1 .56 0c-2-1.48-3.82-3-5.66-4.6a4.12 4.12 0 0 1 0 .88 4 4 0 0 1-.86-.3l-.2-.14c.18-.28.16-.78.4-1l-1.1-1a.56.56 0 0 0-.12.32 2.22 2.22 0 0 1 .18 1.02 4.82 4.82 0 0 1-.34-1.36c-.28-1.54-1.58-1.5-2-2.7a4.32 4.32 0 0 0-2.74-2.32 103.3 103.3 0 0 1-3.16-3.48c-.34.12-.58.38-1.04.6a5.34 5.34 0 0 1-3.18-1.32 2.72 2.72 0 0 0-.56-2c.48-1.36-.46-1.62-.38-3-.6-.48-2-.1-1.88-1.32.44-.44.78 0 1.4 0a103.84 103.84 0 0 1-7.4-11.66 2.62 2.62 0 0 0-.5 1.12c-.16 1.22.64 1.5.76 2.44a8.5 8.5 0 0 1-.2 2.44 2.72 2.72 0 0 1 .28 1.48 106 106 0 0 0 8.44 11.7 5.86 5.86 0 0 1 2.16 1.44 2.38 2.38 0 0 1 .32 1.48c.94 1.06 2 2 2.92 3.12 0 0 .12 0 .16-.1v-1.12a13.04 13.04 0 0 0 2.66 2.46v.28a2 2 0 0 0 .92 2.24c.98.62 1.84.5 2.8 1.26a6 6 0 0 0 2.22 1.32.82.82 0 0 0 1.06-.64c0 .78 0 1.56.38 1.88s.94-.44 1.68-.38a4 4 0 0 0 1.32.94c.14.7-.46 1.04 0 1.5a4.58 4.58 0 0 0-.9 1.3c1.36 1.02 2.74 2 4.16 3.02.14-.2.44-.26.48-.58s-.62-.5-.74-.92c-.08-.76.54-.72.52-1.3zm125.1-5.46a3.02 3.02 0 0 1-2.82 2.8c.12-.82 1.08-.8 1.62-1.2a4 4 0 0 1 .26-1.12 102.66 102.66 0 0 1-22 13.6 1.5 1.5 0 0 1 .94 0c-.2 1.14-2 .58-1.6 2.4a1.4 1.4 0 0 1 .44-2.26 102.44 102.44 0 0 1-42.18 9.08 100.9 100.9 0 0 1-12.86-.82 1.42 1.42 0 0 1-.82.66c-.78 0-1.02-.34-1.64-.38a1.34 1.34 0 0 0-2 0l-.16.18a1.26 1.26 0 0 0 0 1.76l.16.12a1.56 1.56 0 0 0 2.26-.24 2 2 0 0 1 .34.9v.2a107.4 107.4 0 0 0 14.66 1.04c2.84 0 5.64-.14 8.44-.36a.86.86 0 0 0-.18-.52c-.28-.4-.94-.42-.94-1.12.82-.96 1.5.34 2 .76.68 0 1.48-.12 1.7.36.48-.14-.36-.82.18-1.12 1.4.24 3.36-2 3.56.38-.44.14-1.28.36-1.68 0-.74 0-.8.82-1.5.94a105.12 105.12 0 0 0 22.92-5.16c-.14-.8.62-1.76 1.3-1.24a2.32 2.32 0 0 1-.14.82l2.58-.92a1.12 1.12 0 0 1 1.04-1.58c0 .34-.4.42-.4.8a4 4 0 0 0 .24.42 104.16 104.16 0 0 0 11.22-5.22h-.22v-1.2h1.28a.92.92 0 0 1-.26.8 107.54 107.54 0 0 0 14.18-9.4 2.42 2.42 0 0 1-.68.18c0-.4.48-.32.8-.4a.28.28 0 0 1 0 .2c1.74-1.36 3.46-2.78 5.12-4.24a3.54 3.54 0 0 0-1.02 0c.82-.38.34-2 1.6-2a14.44 14.44 0 0 1 .5-3.78c-2 2-4.22 4-6.44 5.78zm-77.84 24.22c-.62 0-1.24 0-1.12-.74.48-.44 1.42-.18 1.12.74zm33.4-.18c-.7.16-.68-.84-.38-1.14h.56c.26.24.26 1.14-.18 1.14zm3.76-2.44c-.22-1.2 2-1.32 1.68 0-.44.14-1.3.36-1.68 0zm60-165c0 .18-.36.32-.44.24s.12-.4.3-.42a105.34 105.34 0 0 0-3.58-4.44 1.16 1.16 0 0 0 0 .46c-.42 0-.48-.34-.8-.42v-.8a107.24 107.24 0 0 0-28.8-23.48c0 .34-.32.68-.62 1.04a1.1 1.1 0 0 1 .18-1.3 105.38 105.38 0 0 0-41.36-12.62c0 .3-.56.16-.56 0l-2.76-.22a3.8 3.8 0 0 1-1.28 0h-.78a1.06 1.06 0 0 1-1.18 0c-.5.86-.88 2-2 .84a3.3 3.3 0 0 0 1.66-.98h-2.82a105.86 105.86 0 0 0-26 3.24l-.38.38-.1-.36a106.72 106.72 0 0 0-18.86 6.96 1.4 1.4 0 0 1 0 .46v-.46c-2.5 1.2-4.96 2.48-7.34 3.84h-.12c-1.62.94-3.2 2-4.76 2.92a1.84 1.84 0 0 1 0 .74c-.38.34-.76.24-1.16 0a111.84 111.84 0 0 0-10.84 8.3 9.44 9.44 0 0 0 1.6 2.2c-.1.36.12.68 0 1.02a103.24 103.24 0 0 1 16.5-11.9c-.16 0-.36 0-.36-.18s.56-.14.56 0q3.18-1.86 6.48-3.48a.32.32 0 0 1 0-.28h.34c1.1-.52 2.22-1.02 3.34-1.5l-.28-.28c.56 0 1.12-.42 1.66-.34 1.44-.6 2.88-1.18 4.34-1.72h.26l1.06-.36a5.7 5.7 0 0 1-.52-.34c.26-.24.54 0 .8.24a102.68 102.68 0 0 1 128.92 135.54c.58.44 2 0 1.52 1.54a11.06 11.06 0 0 1-1.9-.56 102.56 102.56 0 0 1-13.48 23.12h.56c0 .38-.48.32-.78.4q-3.2 4.12-6.8 7.88a2.26 2.26 0 0 0 .36.14c-.14.56-.34.24-.62.12l-.44.46c.54.68 0 .94-.54 1.42 0 1.14 2.62-.48 2 1.2a3.42 3.42 0 0 0-2.42.42c.76.76 0 1 0 2s1.1-.46 1.22-.8a.42.42 0 0 1 .36 0c1.5-1.46 2.98-2.96 4.38-4.5-.46-.18.38-.68-.34-.78.1-.44.8-.28.8-.8.3 0 .36.32.38.62.72-.82 1.4-1.68 2-2.5a1.18 1.18 0 0 1-.88.28c-.5-.54-.52-1.5.42-1.6-.22-.82-1.22-.8-.42-1.62a2.44 2.44 0 0 1 1.62-.4c1.28.34-.72.54-1.2.4v.8c0 .52 1.18.54 1.2 0 .26.14.12.94-.3 1.58.48-.58.98-1.14 1.44-1.72-.16 0-.3 0-.34-.26a.4.4 0 0 1 .7-.2c.34-.4.66-.82.98-1.24a1.22 1.22 0 0 1 .32-.96.4.4 0 0 1 .28.16 100.46 100.46 0 0 0 6-9.14 1.58 1.58 0 0 1-1.52-.64c0-1 1.28-.82 2.36-.8a106 106 0 0 0-7.54-116.54zm-113.14 163.04a13.04 13.04 0 0 1-2-.68 9.24 9.24 0 0 0-1.86-.62 1.6 1.6 0 0 0 0-.3c-1.8-.6-3.58-1.24-5.34-2a.66.66 0 0 1-.58-.14l-.3-.12a1.8 1.8 0 0 0 0 .56l-.22.24a1.46 1.46 0 0 0-1.64-.64h-.12a2.26 2.26 0 0 0-1.16 0 .94.94 0 0 0-.66 1.16 3.1 3.1 0 0 0 1.06 1.2 1.82 1.82 0 0 0 .22.32h.14s0 .1.14.14a1.8 1.8 0 0 0 .84.2c1 .4 2 .8 3 1.18h.32a12.72 12.72 0 0 0 4.64 2.14 17.68 17.68 0 0 0 4 .66c1.68.46 3.38.9 5.08 1.28.5-.6 1.2-1 1.48-1.8a1.36 1.36 0 0 0 1.32-.74 2.74 2.74 0 0 1 .46-.38c-2.86-.54-5.66-1.22-8.42-2a1.54 1.54 0 0 1-.4.34zm-16.8-6.66a1.6 1.6 0 0 0-2.42-.44 5.34 5.34 0 0 0-1.14-1.2 2.2 2.2 0 0 0-1.78-.14c-.12-.2-.3-.38-.46-.24s-.2.42-.42.62a.74.74 0 0 0 .32 1.2 8.88 8.88 0 0 1 1.66.9 3.32 3.32 0 0 0 1.24.3 1.72 1.72 0 0 0 1.2 1.82 4 4 0 0 0 2.34.12 1.08 1.08 0 0 0 .74-1.3 2.42 2.42 0 0 0-1.28-1.64zm-2.98.66c0-.36 0-.2 0 0z"/></g></g></svg>